<svg width="32" height="32" viewBox="0 0 32 32" fill="none" xmlns="http://www.w3.org/2000/svg">
<path d="M4 10.6667C4 11.4 4.6 12 5.33333 12C6.06667 12 6.66667 11.4 6.66667 10.6667V8.00004H9.33333C10.0667 8.00004 10.6667 7.40004 10.6667 6.66671C10.6667 5.93337 10.0667 5.33337 9.33333 5.33337H6.66667V2.66671C6.66667 1.93337 6.06667 1.33337 5.33333 1.33337C4.6 1.33337 4 1.93337 4 2.66671V5.33337H1.33333C0.6 5.33337 0 5.93337 0 6.66671C0 7.40004 0.6 8.00004 1.33333 8.00004H4V10.6667Z" fill="black"/>
<path d="M17.3333 22.6666C19.5425 22.6666 21.3333 20.8758 21.3333 18.6666C21.3333 16.4575 19.5425 14.6666 17.3333 14.6666C15.1242 14.6666 13.3333 16.4575 13.3333 18.6666C13.3333 20.8758 15.1242 22.6666 17.3333 22.6666Z" fill="black"/>
<path d="M28 8.00004H23.7733L22.12 6.20004C21.6267 5.65337 20.9067 5.33337 20.16 5.33337H11.6267C11.8533 5.73337 12 6.17337 12 6.66671C12 8.13337 10.8 9.33337 9.33333 9.33337H8V10.6667C8 12.1334 6.8 13.3334 5.33333 13.3334C4.84 13.3334 4.4 13.1867 4 12.96V26.6667C4 28.1334 5.2 29.3334 6.66667 29.3334H28C29.4667 29.3334 30.6667 28.1334 30.6667 26.6667V10.6667C30.6667 9.20004 29.4667 8.00004 28 8.00004ZM17.3333 25.3334C13.6533 25.3334 10.6667 22.3467 10.6667 18.6667C10.6667 14.9867 13.6533 12 17.3333 12C21.0133 12 24 14.9867 24 18.6667C24 22.3467 21.0133 25.3334 17.3333 25.3334Z" fill="black"/>
</svg>
