<svg width="20" height="20" viewBox="0 0 20 20" fill="none" xmlns="http://www.w3.org/2000/svg">
<path d="M15.0965 10.512C15.0885 9.03718 15.7556 7.92403 17.1058 7.10423C16.3503 6.02323 15.209 5.42848 13.7021 5.31194C12.2755 5.19942 10.7162 6.14379 10.1456 6.14379C9.54282 6.14379 8.16043 5.35213 7.07541 5.35213C4.83303 5.3883 2.45001 7.1404 2.45001 10.7049C2.45001 11.7578 2.6429 12.8455 3.02869 13.968C3.54307 15.4428 5.39966 19.0595 7.33662 18.9993C8.3493 18.9751 9.06461 18.2799 10.3827 18.2799C11.6606 18.2799 12.3237 18.9993 13.4529 18.9993C15.4059 18.9711 17.0857 15.6839 17.576 14.2051C14.9559 12.9714 15.0965 10.5884 15.0965 10.512ZM12.822 3.91348C13.9191 2.61145 13.8186 1.42597 13.7865 1C12.818 1.05626 11.6968 1.65905 11.0578 2.40249C10.3546 3.19817 9.94066 4.18272 10.0291 5.29185C11.0779 5.37222 12.0343 4.83373 12.822 3.91348Z" fill="white"/>
</svg>
