<svg width="160" height="160" viewBox="0 0 160 160" fill="none" xmlns="http://www.w3.org/2000/svg">
<path d="M151.978 52.7706H71.7615C67.3312 52.7706 63.74 56.3622 63.74 60.7922V127.134C63.74 131.564 67.3315 135.155 71.7615 135.155H115.193C115.638 135.155 116.069 135.309 116.414 135.59L132.132 148.411C133.394 149.44 135.285 148.542 135.285 146.914V137.087C135.285 136.02 136.149 135.155 137.216 135.155H151.978C156.409 135.155 160 131.564 160 127.134V60.7922C160 56.3622 156.408 52.7706 151.978 52.7706Z" fill="#FFEEDD"/>
<path d="M71.7615 52.7706C67.3312 52.7706 63.74 56.3619 63.74 60.7922V101.991H88.2387C97.324 101.991 104.716 94.5994 104.716 85.5138V52.7706H71.7615Z" fill="#FFE7CF"/>
<path d="M8.02156 11.1509H88.2384C92.6688 11.1509 96.26 14.7425 96.26 19.1725V85.5141C96.26 89.9444 92.6684 93.5356 88.2384 93.5356H44.8072C44.3622 93.5356 43.9309 93.6891 43.5863 93.9703L27.8678 106.791C26.6063 107.82 24.7153 106.922 24.7153 105.294V95.4672C24.7153 94.4003 23.8506 93.5356 22.7837 93.5356H8.02156C3.59156 93.5356 0 89.9444 0 85.5141V19.1725C0 14.7422 3.59156 11.1509 8.02156 11.1509Z" fill="#FFDFF8"/>
<path d="M88.2384 11.1509H87.0372V80.3022C87.0372 82.5172 85.2416 84.3131 83.0262 84.3131H0V85.5144C0 89.9447 3.59156 93.5359 8.02156 93.5359H22.7837C23.8506 93.5359 24.7153 94.4006 24.7153 95.4675V105.294C24.7153 106.922 26.6059 107.82 27.8678 106.791L43.5863 93.9706C43.9309 93.6894 44.3622 93.5359 44.8072 93.5359H88.2384C92.6688 93.5359 96.26 89.9444 96.26 85.5144V19.1725C96.26 14.7422 92.6688 11.1509 88.2384 11.1509Z" fill="#FFCAF4"/>
<path d="M48.13 78.0125C62.3068 78.0125 73.7994 66.5199 73.7994 52.3431C73.7994 38.1663 62.3068 26.6738 48.13 26.6738C33.9532 26.6738 22.4606 38.1663 22.4606 52.3431C22.4606 66.5199 33.9532 78.0125 48.13 78.0125Z" fill="#FFCC1B"/>
<path d="M61.8192 30.6328C64.3232 34.5956 65.7779 39.2875 65.7779 44.3216C65.7779 58.4984 54.2854 69.9909 40.1086 69.9909C35.0745 69.9909 30.3826 68.5359 26.4198 66.0322C30.9673 73.2291 38.9876 78.0128 48.1304 78.0128C62.3073 78.0128 73.7998 66.5203 73.7998 52.3434C73.7995 43.2006 69.016 35.18 61.8192 30.6328Z" fill="#E2B517"/>
<path d="M48.13 64.4653C44.0844 64.4653 40.2744 62.8859 37.4016 60.0181C36.4853 59.1034 36.4841 57.6197 37.3988 56.7038C38.3131 55.7875 39.7969 55.7859 40.7131 56.7009C42.7006 58.6853 45.3347 59.7781 48.1297 59.7781C50.9247 59.7781 53.5588 58.6853 55.5463 56.7009C56.4622 55.7859 57.9463 55.7875 58.8606 56.7038C59.7753 57.62 59.7738 59.1041 58.8578 60.0181C55.9856 62.8859 52.1756 64.4653 48.13 64.4653Z" fill="#2F3043"/>
<path d="M54.5475 46.6653C53.2532 46.6653 52.2038 45.6163 52.2038 44.3216V41.1129C52.2038 39.8182 53.2532 38.7691 54.5475 38.7691C55.8419 38.7691 56.8913 39.8182 56.8913 41.1129V44.3216C56.8913 45.6163 55.8419 46.6653 54.5475 46.6653Z" fill="#2F3043"/>
<path d="M41.7129 46.6653C40.4185 46.6653 39.3691 45.6163 39.3691 44.3216V41.1129C39.3691 39.8182 40.4185 38.7691 41.7129 38.7691C43.0073 38.7691 44.0566 39.8182 44.0566 41.1129V44.3216C44.0566 45.6163 43.0073 46.6653 41.7129 46.6653Z" fill="#2F3043"/>
</svg>
