<svg width="24" height="24" viewBox="0 0 24 24" fill="none" xmlns="http://www.w3.org/2000/svg">
<path d="M18.3 5.70997C17.91 5.31997 17.28 5.31997 16.89 5.70997L12 10.59L7.11003 5.69997C6.72003 5.30997 6.09003 5.30997 5.70003 5.69997C5.31003 6.08997 5.31003 6.71997 5.70003 7.10997L10.59 12L5.70003 16.89C5.31003 17.28 5.31003 17.91 5.70003 18.3C6.09003 18.69 6.72003 18.69 7.11003 18.3L12 13.41L16.89 18.3C17.28 18.69 17.91 18.69 18.3 18.3C18.69 17.91 18.69 17.28 18.3 16.89L13.41 12L18.3 7.10997C18.68 6.72997 18.68 6.08997 18.3 5.70997Z" fill="black" fill-opacity="0.2"/>
</svg>
