<svg width="223" height="200" viewBox="0 0 223 200" fill="none" xmlns="http://www.w3.org/2000/svg">
<rect x="51" width="120" height="200" rx="24" fill="#FFEEDD"/>
<path d="M105.24 91H111.4L105.32 79.4C109.04 78.32 111.36 75.32 111.36 71.36C111.36 66.44 107.84 62.64 102.32 62.64H91.24V91H96.8V80.08H99.68L105.24 91ZM96.8 75.32V67.44H101.28C104.08 67.44 105.72 69 105.72 71.4C105.72 73.72 104.08 75.32 101.28 75.32H96.8ZM119.173 78.92C119.293 77.12 120.813 75.04 123.573 75.04C126.613 75.04 127.893 76.96 127.973 78.92H119.173ZM128.493 84.04C127.853 85.8 126.493 87.04 124.013 87.04C121.373 87.04 119.173 85.16 119.053 82.56H133.133C133.133 82.48 133.213 81.68 133.213 80.92C133.213 74.6 129.573 70.72 123.493 70.72C118.453 70.72 113.813 74.8 113.813 81.08C113.813 87.72 118.573 91.6 123.973 91.6C128.813 91.6 131.933 88.76 132.933 85.36L128.493 84.04ZM155.572 71.32H149.972L145.292 84.52L140.412 71.32H134.572L142.612 91H147.932L155.572 71.32ZM164.129 91V71.32H158.809V91H164.129ZM158.169 64.88C158.169 66.64 159.649 68.12 161.449 68.12C163.289 68.12 164.729 66.64 164.729 64.88C164.729 63.04 163.289 61.56 161.449 61.56C159.649 61.56 158.169 63.04 158.169 64.88ZM173.704 78.92C173.824 77.12 175.344 75.04 178.104 75.04C181.144 75.04 182.424 76.96 182.504 78.92H173.704ZM183.024 84.04C182.384 85.8 181.024 87.04 178.544 87.04C175.904 87.04 173.704 85.16 173.584 82.56H187.664C187.664 82.48 187.744 81.68 187.744 80.92C187.744 74.6 184.104 70.72 178.024 70.72C172.984 70.72 168.344 74.8 168.344 81.08C168.344 87.72 173.104 91.6 178.504 91.6C183.344 91.6 186.464 88.76 187.464 85.36L183.024 84.04ZM202.781 71.32L198.501 83.96L194.861 71.32H189.261L195.541 91H200.941L205.461 77.56L210.061 91H215.381L221.541 71.32H216.261L212.621 84L208.381 71.32H202.781ZM105.24 131H111.4L105.32 119.4C109.04 118.32 111.36 115.32 111.36 111.36C111.36 106.44 107.84 102.64 102.32 102.64H91.24V131H96.8V120.08H99.68L105.24 131ZM96.8 115.32V107.44H101.28C104.08 107.44 105.72 109 105.72 111.4C105.72 113.72 104.08 115.32 101.28 115.32H96.8ZM119.173 118.92C119.293 117.12 120.813 115.04 123.573 115.04C126.613 115.04 127.893 116.96 127.973 118.92H119.173ZM128.493 124.04C127.853 125.8 126.493 127.04 124.013 127.04C121.373 127.04 119.173 125.16 119.053 122.56H133.133C133.133 122.48 133.213 121.68 133.213 120.92C133.213 114.6 129.573 110.72 123.493 110.72C118.453 110.72 113.813 114.8 113.813 121.08C113.813 127.72 118.573 131.6 123.973 131.6C128.813 131.6 131.933 128.76 132.933 125.36L128.493 124.04ZM141.283 118.92C141.403 117.12 142.923 115.04 145.683 115.04C148.723 115.04 150.003 116.96 150.083 118.92H141.283ZM150.603 124.04C149.963 125.8 148.603 127.04 146.123 127.04C143.483 127.04 141.283 125.16 141.163 122.56H155.243C155.243 122.48 155.323 121.68 155.323 120.92C155.323 114.6 151.683 110.72 145.603 110.72C140.563 110.72 135.923 114.8 135.923 121.08C135.923 127.72 140.683 131.6 146.083 131.6C150.923 131.6 154.043 128.76 155.043 125.36L150.603 124.04ZM164.832 131V102.04H159.512V131H164.832ZM168.848 125.52C169.088 127.76 171.128 131.6 177.048 131.6C182.208 131.6 184.688 128.32 184.688 125.12C184.688 122.24 182.728 119.88 178.848 119.08L176.048 118.48C174.968 118.28 174.248 117.68 174.248 116.72C174.248 115.6 175.368 114.76 176.768 114.76C179.008 114.76 179.848 116.24 180.008 117.4L184.448 116.4C184.208 114.28 182.328 110.72 176.728 110.72C172.488 110.72 169.368 113.64 169.368 117.16C169.368 119.92 171.088 122.2 174.888 123.04L177.488 123.64C179.008 123.96 179.608 124.68 179.608 125.56C179.608 126.6 178.768 127.52 177.008 127.52C174.688 127.52 173.528 126.08 173.408 124.52L168.848 125.52Z" fill="#EE2737"/>
<path d="M9.87364 60L11.9202 81.4925H20.881L18.4888 60H28.5496L30.534 81.4925H39.2648L37.3197 60H46.1089L48.1145 81.4925H56.7806L55.1108 60H63C67.9635 60 72 64.0365 72 69V129.75C72 130.596 71.5275 131.375 70.7715 131.757C70.4475 131.919 70.0965 132 69.75 132C69.282 132 68.814 131.852 68.4225 131.563L50.5665 118.5H9C4.0365 118.5 0 114.464 0 109.5V69C0 67.4274 0 64.4274 0 60H9.87364Z" fill="#EE2737"/>
</svg>
