<svg width="20" height="20" viewBox="0 0 20 20" fill="none" xmlns="http://www.w3.org/2000/svg">
<path d="M15 6.66663H13.3333C12.875 6.66663 12.5 7.04163 12.5 7.49996C12.5 7.95829 12.875 8.33329 13.3333 8.33329H15V17.5H4.99998V8.33329H6.66665C7.12498 8.33329 7.49998 7.95829 7.49998 7.49996C7.49998 7.04163 7.12498 6.66663 6.66665 6.66663H4.99998C4.08331 6.66663 3.33331 7.41663 3.33331 8.33329V17.5C3.33331 18.4166 4.08331 19.1666 4.99998 19.1666H15C15.9166 19.1666 16.6666 18.4166 16.6666 17.5V8.33329C16.6666 7.41663 15.9166 6.66663 15 6.66663Z" fill="white"/>
<path d="M9.99997 13.3333C10.4583 13.3333 10.8333 12.9583 10.8333 12.5V4.16663H12.325C12.7 4.16663 12.8833 3.71663 12.6166 3.4583L10.2916 1.1333C10.125 0.966634 9.86664 0.966634 9.69997 1.1333L7.37497 3.4583C7.11664 3.71663 7.29997 4.16663 7.67497 4.16663H9.16664V12.5C9.16664 12.9583 9.54164 13.3333 9.99997 13.3333Z" fill="white"/>
</svg>
