<svg width="48" height="48" viewBox="0 0 48 48" fill="none" xmlns="http://www.w3.org/2000/svg">
<path d="M34.66 6.64883C32.78 5.44883 30.68 4.56883 28.42 4.04883C27.18 3.76883 26 4.72883 26 6.00883C26 6.90883 26.6 7.74883 27.48 7.94883C29.3 8.34883 31.02 9.06883 32.54 10.0488C33.32 10.5488 34.32 10.3888 34.98 9.72883C35.88 8.82883 35.74 7.32883 34.66 6.64883ZM41.54 21.5488C42.82 21.5488 43.8 20.3688 43.5 19.1288C42.98 16.8888 42.1 14.7888 40.9 12.8888C40.22 11.8088 38.7 11.6688 37.8 12.5688C37.16 13.2088 37 14.2288 37.48 15.0088C38.46 16.5488 39.18 18.2488 39.58 20.0688C39.8 20.9488 40.62 21.5488 41.54 21.5488ZM37.8 34.5288C38.7 35.4288 40.22 35.2888 40.9 34.2288C42.1 32.3488 42.98 30.2488 43.5 28.0088C43.78 26.7688 42.8 25.5888 41.54 25.5888C40.64 25.5888 39.8 26.1888 39.6 27.0688C39.2 28.8888 38.46 30.5888 37.5 32.1288C37 32.8688 37.16 33.8888 37.8 34.5288ZM26 41.0888C26 42.3688 27.18 43.3488 28.42 43.0488C30.66 42.5288 32.76 41.6488 34.64 40.4488C35.72 39.7688 35.86 38.2488 34.96 37.3488C34.32 36.7088 33.3 36.5488 32.54 37.0488C31.02 38.0288 29.32 38.7488 27.48 39.1488C26.6 39.3488 26 40.1688 26 41.0888ZM22 41.0888C22 42.3688 20.82 43.3488 19.58 43.0688C10.66 41.0488 4 33.0888 4 23.5488C4 14.0088 10.66 6.04883 19.58 4.04883C20.82 3.76883 22 4.72883 22 6.00883C22 6.92883 21.38 7.74883 20.48 7.94883C13.34 9.54883 8 15.9288 8 23.5488C8 31.1688 13.34 37.5488 20.48 39.1488C21.38 39.3488 22 40.1688 22 41.0888Z" fill="#EE2737"/>
<path d="M16 19.2857C16 19.9971 16.5743 20.5714 17.2857 20.5714H21.1429V22.7143H18.1429C17.4314 22.7143 16.8571 23.2886 16.8571 24C16.8571 24.7114 17.4314 25.2857 18.1429 25.2857H21.1429V27.4286H17.2857C16.5743 27.4286 16 28.0029 16 28.7143C16 29.4257 16.5743 30 17.2857 30H21.1429C22.5657 30 23.7143 28.8514 23.7143 27.4286V25.8C23.7143 24.8057 22.9086 24 21.9143 24C22.9086 24 23.7143 23.1943 23.7143 22.2V20.5714C23.7143 19.1486 22.5657 18 21.1429 18H17.2857C16.5743 18 16 18.5743 16 19.2857ZM30.5714 20.5714V27.4286H27.1429V20.5714H30.5714ZM30.5714 18H27.1429C25.72 18 24.5714 19.1486 24.5714 20.5714V27.4286C24.5714 28.8514 25.72 30 27.1429 30H30.5714C31.9943 30 33.1429 28.8514 33.1429 27.4286V20.5714C33.1429 19.1486 31.9943 18 30.5714 18Z" fill="#EE2737"/>
</svg>
