<svg width="48" height="48" viewBox="0 0 48 48" fill="none" xmlns="http://www.w3.org/2000/svg">
<path d="M27.62 5.72001C27.96 5.12001 27.62 4.32001 26.92 4.24001C21.68 3.50001 16.32 4.80001 12.04 7.96001C11.66 8.26001 11.54 8.82001 11.8 9.26001L17.82 19.7C18.2 20.36 19.16 20.36 19.56 19.7L27.62 5.72001ZM42.6 16.66C40.64 11.72 36.76 7.74001 31.9 5.66001C31.44 5.46001 30.9 5.66001 30.64 6.10001L24.62 16.52C24.24 17.16 24.72 18 25.5 18H41.66C42.36 18 42.86 17.3 42.6 16.66ZM42.74 20H30.34C29.58 20 29.08 20.84 29.48 21.5L38 36.28C38.34 36.88 39.2 36.98 39.64 36.44C43.12 32.08 44.6 26.38 43.74 20.86C43.68 20.36 43.24 20 42.74 20ZM8.35999 11.58C4.89999 15.96 3.39999 21.62 4.25999 27.16C4.31999 27.64 4.75999 28 5.25999 28H17.66C18.42 28 18.92 27.16 18.52 26.5L9.99999 11.74C9.63999 11.14 8.77999 11.04 8.35999 11.58ZM5.39999 31.34C7.35999 36.28 11.24 40.26 16.1 42.34C16.56 42.54 17.1 42.34 17.36 41.9L23.38 31.48C23.76 30.82 23.28 29.98 22.52 29.98H6.33999C5.63999 30 5.13999 30.7 5.39999 31.34ZM21.06 43.78C26.3 44.52 31.66 43.22 35.94 40.06C36.34 39.76 36.46 39.18 36.2 38.74L30.18 28.3C29.8 27.64 28.84 27.64 28.44 28.3L20.36 42.28C20.02 42.88 20.38 43.68 21.06 43.78Z" fill="#EE2737"/>
</svg>
